HIERARCHY
ROOT Hips
{
	OFFSET 0.00000 0.00000 0.00000
	CHANNELS 6 Xposition Yposition Zposition Zrotation Yrotation Xrotation 
	JOINT RightUpLegDummy
	{
		OFFSET 0 0 0
		CHANNELS 3 Zrotation Yrotation Xrotation
		JOINT RightUpLeg
		{
			OFFSET -3.52197 -3.41223 0.04002
			CHANNELS 3 Zrotation Yrotation Xrotation
			JOINT RightLeg
			{
				OFFSET 0.00006 -17.42390 1.60435
				CHANNELS 3 Zrotation Yrotation Xrotation
				JOINT RightFoot
				{
					OFFSET 0.06154 -16.50078 -1.63900
					CHANNELS 3 Zrotation Yrotation Xrotation
					JOINT RightToes
					{
						OFFSET 0.00298 -1.73825 3.34613
						CHANNELS 3 Zrotation Yrotation Xrotation
						End Site
						{
							OFFSET 0.00480 -0.05416 3.85043
						}
					}
				}
			}
		}
	}
	JOINT SpineDummy
	{
		OFFSET 0 0 0
		CHANNELS 3 Zrotation Yrotation Xrotation
		JOINT Spine
		{
			OFFSET 0.00000 4.68130 0.00000
			CHANNELS 3 Zrotation Yrotation Xrotation
			JOINT Spine1
			{
				OFFSET -0.00000 10.10138 0.05002
				CHANNELS 3 Zrotation Yrotation Xrotation
				JOINT HEadDummy
				{
					OFFSET 0 0 0
					CHANNELS 3 Zrotation Yrotation Xrotation
					JOINT Head
					{
						OFFSET -0.00000 3.43865 0.00438
						CHANNELS 3 Zrotation Yrotation Xrotation
						End Site
						{
							OFFSET -0.11417 5.02924 0.98962
						}
					}
				}
				JOINT LeftShoulder1Dummy
				{
					OFFSET 0 0 0
					CHANNELS 3 Zrotation Yrotation Xrotation
					JOINT LeftShoulder1
					{
						OFFSET 3.53937 -0.14262 -0.08662
						CHANNELS 3 Zrotation Yrotation Xrotation
						JOINT LeftArm
						{
							OFFSET 4.04833 -0.00133 0.12681
							CHANNELS 3 Zrotation Yrotation Xrotation
							JOINT LeftForeArm
							{
								OFFSET 10.33880 -0.01036 -0.55515
								CHANNELS 3 Zrotation Yrotation Xrotation
								JOINT LeftHand
								{
									OFFSET 8.69677 0.07543 0.40060
									CHANNELS 3 Zrotation Yrotation Xrotation
									End Site
									{
										OFFSET 5.28377 -0.21905 0.59205
									}
								}
							}
						}
					}
				}
				JOINT RightShoulderDummy
				{
					OFFSET 0 0 0
					CHANNELS 3 Zrotation Yrotation Xrotation
					JOINT RightShoulder
					{
						OFFSET -3.53937 -0.14262 -0.08660
						CHANNELS 3 Zrotation Yrotation Xrotation
						JOINT RightArm
						{
							OFFSET -4.04833 -0.00133 0.12683
							CHANNELS 3 Zrotation Yrotation Xrotation
							JOINT RightForeArm
							{
								OFFSET -10.37987 -0.01039 -0.55511
								CHANNELS 3 Zrotation Yrotation Xrotation
								JOINT RightHand
								{
									OFFSET -8.67398 0.07538 0.40058
									CHANNELS 3 Zrotation Yrotation Xrotation
									End Site
									{
										OFFSET -5.24810 -0.21916 0.59204
									}
								}
							}
						}
					}
				}
			}
		}
	}
	JOINT LeftUpLegDummy
	{
		OFFSET 0 0 0
		CHANNELS 3 Zrotation Yrotation Xrotation
		JOINT LeftUpLeg
		{
			OFFSET 3.52197 -3.41223 0.04002
			CHANNELS 3 Zrotation Yrotation Xrotation
			JOINT LeftLeg
			{
				OFFSET -0.00012 -17.42399 1.60337
				CHANNELS 3 Zrotation Yrotation Xrotation
				JOINT LeftFoot
				{
					OFFSET -0.09972 -16.50070 -1.63802
					CHANNELS 3 Zrotation Yrotation Xrotation
					JOINT LeftToes
					{
						OFFSET -0.01575 -1.73823 3.34611
						CHANNELS 3 Zrotation Yrotation Xrotation
						End Site
						{
							OFFSET 0.03150 -0.01868 3.85031
						}
					}
				}
			}
		}
	}
}
MOTION
Frames: 8
Frame Time: 0.033333
-6.1545 40.1798 12.9203 176.6570 0.2451 178.9750 0.0000 0.0000 0.0000 -4.3306 -5.9092 -1.1978 -2.7288 -4.1734 8.0108 6.9685 -0.4035 -4.9945 0.0000 0.0000 -0.0000 0.0000 0.0000 0.0000 -5.0726 -1.3647 -8.0830 2.3790 -1.8047 17.7248 0.0000 0.0000 0.0000 1.1370 -1.4128 -5.0691 0.0000 0.0000 0.0000 -21.1992 -4.9120 2.3195 -55.6977 -12.8853 -18.6577 -12.5319 0.3934 37.2075 15.5082 -4.1608 -1.2321 0.0000 0.0000 0.0000 21.0296 1.2914 1.3122 55.9638 13.5175 2.7880 9.3222 13.6992 21.7652 -5.6160 2.3085 -0.3523 0.0000 0.0000 0.0000 -2.3694 -1.6773 0.9183 1.1927 6.2808 3.3307 -1.1936 0.1064 -3.6611 -0.0000 0.0000 -0.0000
-6.1844 40.1798 12.9153 176.6240 0.4704 179.0060 0.0000 0.0000 0.0000 -4.4132 -5.9483 -1.3002 -2.6818 -3.9140 8.0742 6.9896 -0.4048 -5.0054 0.0000 0.0000 -0.0000 0.0000 0.0000 0.0000 -4.6905 -1.2906 -8.1736 1.9816 -1.6116 17.7383 0.0000 0.0000 0.0000 1.1727 -1.3986 -5.0337 0.0000 0.0000 0.0000 -21.1625 -4.9210 2.3195 -55.7135 -12.8711 -18.7562 -12.4836 0.4076 37.2528 15.4222 -4.1842 -1.2363 0.0000 0.0000 0.0000 21.0329 1.2862 1.3122 55.9501 13.5104 2.6687 9.3768 13.6107 22.0493 -5.7123 2.3866 -0.3619 0.0000 0.0000 0.0000 -2.4598 -1.7308 0.9462 1.2235 6.5549 3.2543 -1.1921 0.1063 -3.6546 -0.0000 0.0000 -0.0000
-6.2274 40.1798 12.9080 176.5880 0.7916 179.0450 0.0000 0.0000 0.0000 -4.5135 -5.9863 -1.4291 -2.6286 -3.5612 8.1379 7.0042 -0.4057 -5.0083 0.0000 0.0000 -0.0000 0.0000 0.0000 0.0000 -4.1547 -1.1802 -8.3048 1.4306 -1.3379 17.7686 0.0000 0.0000 0.0000 1.2254 -1.3987 -5.0223 0.0000 0.0000 0.0000 -21.0634 -4.9492 2.3201 -55.7391 -12.8706 -18.8587 -12.4368 0.4483 37.2865 15.3709 -4.2088 -1.2416 0.0000 0.0000 0.0000 20.9823 1.2843 1.3122 55.9791 13.4823 2.5935 9.4188 13.5402 22.3470 -5.7592 2.4649 -0.3682 0.0000 0.0000 0.0000 -2.5772 -1.7951 0.9882 1.2627 6.9357 3.1501 -1.1849 0.1058 -3.6445 -0.0000 0.0000 -0.0000
-6.2500 40.1798 12.9028 176.5810 0.9574 179.0730 0.0000 0.0000 0.0000 -4.5406 -5.9782 -1.4865 -2.6229 -3.4036 8.1380 7.0059 -0.4058 -4.9927 0.0000 0.0000 -0.0000 0.0000 0.0000 0.0000 -3.9542 -1.1165 -8.4242 1.2418 -1.2176 17.8410 0.0000 0.0000 0.0000 1.2441 -1.3915 -5.0864 0.0000 0.0000 0.0000 -20.9780 -4.9959 2.3258 -55.7306 -12.9011 -18.8700 -12.4333 0.4900 37.2996 15.4456 -4.1919 -1.2445 0.0000 0.0000 0.0000 20.8517 1.3141 1.3142 56.0667 13.4373 2.6526 9.3912 13.5753 22.3848 -5.7166 2.4890 -0.3663 0.0000 0.0000 0.0000 -2.6216 -1.8124 0.9998 1.2772 7.1231 3.1048 -1.1673 0.1047 -3.6472 -0.0000 0.0000 -0.0000
-6.2526 40.1798 12.8983 176.5900 0.9786 179.0820 0.0000 0.0000 0.0000 -4.5232 -5.9504 -1.4762 -2.6439 -3.4031 8.0989 7.0204 -0.4068 -4.9723 0.0000 0.0000 -0.0000 0.0000 0.0000 0.0000 -4.0987 -1.0982 -8.5407 1.4213 -1.2483 17.9635 0.0000 0.0000 0.0000 1.2087 -1.3654 -5.1644 0.0000 0.0000 0.0000 -21.0004 -5.0622 2.3457 -55.6314 -12.9432 -18.8272 -12.4598 0.5001 37.2530 15.3841 -4.0776 -1.2251 0.0000 0.0000 0.0000 20.6999 1.3752 1.3234 56.1402 13.4095 2.6542 9.3676 13.5985 22.4137 -5.7357 2.5222 -0.3690 0.0000 0.0000 0.0000 -2.6146 -1.7984 1.0001 1.2738 7.1496 3.1020 -1.1245 0.1019 -3.6607 -0.0000 0.0000 -0.0000
-6.2553 40.1798 12.8917 176.5810 1.0065 179.0540 0.0000 0.0000 0.0000 -4.5359 -5.9522 -1.4305 -2.6482 -3.3681 8.0773 7.0587 -0.4093 -4.9686 0.0000 0.0000 -0.0000 0.0000 0.0000 0.0000 -4.2454 -1.0797 -8.6099 1.5894 -1.2742 18.0581 0.0000 0.0000 0.0000 1.1653 -1.3618 -5.1579 0.0000 0.0000 0.0000 -21.0991 -5.1347 2.3735 -55.4573 -12.9698 -18.8180 -12.4820 0.4820 37.1732 15.0156 -3.9461 -1.1784 0.0000 0.0000 0.0000 20.6124 1.4339 1.3352 56.1267 13.4285 2.4175 9.4429 13.4701 22.7175 -5.8574 2.5974 -0.3805 0.0000 0.0000 0.0000 -2.6300 -1.7967 1.0604 1.2711 7.1935 3.0703 -1.0729 0.0986 -3.6634 -0.0000 0.0000 -0.0000
-6.2666 40.1798 12.8834 176.5590 1.0935 178.9820 0.0000 0.0000 0.0000 -4.5883 -5.9881 -1.3608 -2.6266 -3.2474 8.0848 7.0927 -0.4114 -4.9836 0.0000 0.0000 -0.0000 0.0000 0.0000 0.0000 -4.1941 -1.0481 -8.5751 1.5185 -1.2189 18.0454 0.0000 0.0000 0.0000 1.1804 -1.4104 -5.0613 0.0000 0.0000 0.0000 -21.1285 -5.1891 2.3909 -55.3219 -12.9772 -18.8705 -12.4756 0.4620 37.1972 14.7002 -3.9741 -1.1560 0.0000 0.0000 0.0000 20.6210 1.4617 1.3431 56.0272 13.4865 2.0539 9.5894 13.2412 23.1170 -5.9288 2.6506 -0.3877 0.0000 0.0000 0.0000 -2.6769 -1.8099 1.1937 1.2649 7.2911 2.9970 -1.0599 0.0978 -3.6508 -0.0000 0.0000 -0.0000
-6.2781 40.1799 12.8757 176.5510 1.1842 178.9140 0.0000 0.0000 0.0000 -4.6282 -6.0171 -1.2900 -2.5966 -3.1334 8.0831 7.0938 -0.4115 -4.9932 0.0000 0.0000 -0.0000 0.0000 0.0000 0.0000 -4.0543 -1.0186 -8.4985 1.3357 -1.1350 17.9745 0.0000 0.0000 0.0000 1.2545 -1.4748 -4.9633 0.0000 0.0000 0.0000 -21.0185 -5.2201 2.3904 -55.3063 -12.9933 -18.9305 -12.4460 0.4551 37.3390 14.8325 -4.1407 -1.1871 0.0000 0.0000 0.0000 20.6902 1.4559 1.3453 55.8870 13.5576 1.8523 9.7026 13.0848 23.2342 -5.8816 2.6361 -0.3827 0.0000 0.0000 0.0000 -2.7042 -1.8072 1.3138 1.2611 7.3684 2.9418 -1.0880 0.0996 -3.6476 -0.0000 0.0000 -0.0000
